<mxfile host="app.diagrams.net" modified="2021-09-01T15:36:36.243Z" agent="5.0 (Windows NT 10.0; Win64; x64) AppleWebKit/537.36 (KHTML, like Gecko) Chrome/92.0.4515.159 Safari/537.36" etag="FUVbpGH0cD7rNfSODSJc" version="15.0.4" type="github">
  <diagram id="02YwrOQEyVnK81n4Qe-P" name="Page-1">
    <mxGraphModel dx="2031" dy="1140" grid="1" gridSize="10" guides="1" tooltips="1" connect="1" arrows="1" fold="1" page="1" pageScale="1" pageWidth="1169" pageHeight="827" math="0" shadow="0">
      <root>
        <mxCell id="0" />
        <mxCell id="1" parent="0" />
        <mxCell id="764Ciz8rpWDjdKqTSK2r-8" value="" style="group" vertex="1" connectable="0" parent="1">
          <mxGeometry x="107.5" y="50" width="1025" height="110" as="geometry" />
        </mxCell>
        <mxCell id="764Ciz8rpWDjdKqTSK2r-7" value="" style="rounded=0;whiteSpace=wrap;html=1;strokeWidth=4;" vertex="1" parent="764Ciz8rpWDjdKqTSK2r-8">
          <mxGeometry width="968.835616438356" height="110" as="geometry" />
        </mxCell>
        <mxCell id="764Ciz8rpWDjdKqTSK2r-6" value="&lt;font style=&quot;font-size: 30px&quot;&gt;Users&lt;/font&gt;" style="rounded=0;whiteSpace=wrap;html=1;strokeWidth=2;fillColor=#0050ef;strokeColor=#001DBC;fontColor=#ffffff;" vertex="1" parent="764Ciz8rpWDjdKqTSK2r-8">
          <mxGeometry width="968.835616438356" height="32.35294117647059" as="geometry" />
        </mxCell>
        <mxCell id="764Ciz8rpWDjdKqTSK2r-4" value="&lt;font style=&quot;font-size: 30px&quot;&gt;Inputs : Chaser, Target, Time&lt;/font&gt;" style="rounded=0;whiteSpace=wrap;html=1;fillColor=#dae8fc;strokeColor=#6c8ebf;" vertex="1" parent="764Ciz8rpWDjdKqTSK2r-8">
          <mxGeometry y="32.35294117647059" width="968.835616438356" height="77.6470588235294" as="geometry" />
        </mxCell>
        <mxCell id="764Ciz8rpWDjdKqTSK2r-9" value="" style="group" vertex="1" connectable="0" parent="1">
          <mxGeometry x="730" y="304" width="420" height="110" as="geometry" />
        </mxCell>
        <mxCell id="764Ciz8rpWDjdKqTSK2r-10" value="" style="rounded=0;whiteSpace=wrap;html=1;strokeWidth=4;" vertex="1" parent="764Ciz8rpWDjdKqTSK2r-9">
          <mxGeometry width="396.986301369863" height="110" as="geometry" />
        </mxCell>
        <mxCell id="764Ciz8rpWDjdKqTSK2r-11" value="&lt;font style=&quot;font-size: 30px&quot;&gt;Matlab&lt;/font&gt;" style="rounded=0;whiteSpace=wrap;html=1;strokeWidth=2;fillColor=#0050ef;strokeColor=#001DBC;fontColor=#ffffff;" vertex="1" parent="764Ciz8rpWDjdKqTSK2r-9">
          <mxGeometry width="396.986301369863" height="32.35294117647059" as="geometry" />
        </mxCell>
        <mxCell id="764Ciz8rpWDjdKqTSK2r-12" value="&lt;font style=&quot;font-size: 30px&quot;&gt;Compute velocity and deltaV using HCW equations&lt;/font&gt;" style="rounded=0;whiteSpace=wrap;html=1;fillColor=#dae8fc;strokeColor=#6c8ebf;" vertex="1" parent="764Ciz8rpWDjdKqTSK2r-9">
          <mxGeometry y="32.35294117647059" width="396.986301369863" height="77.6470588235294" as="geometry" />
        </mxCell>
        <mxCell id="764Ciz8rpWDjdKqTSK2r-15" value="" style="shape=flexArrow;endArrow=classic;html=1;" edge="1" parent="1">
          <mxGeometry width="50" height="50" relative="1" as="geometry">
            <mxPoint x="380" y="180" as="sourcePoint" />
            <mxPoint x="380" y="280" as="targetPoint" />
          </mxGeometry>
        </mxCell>
        <mxCell id="764Ciz8rpWDjdKqTSK2r-16" value="" style="group" vertex="1" connectable="0" parent="1">
          <mxGeometry x="110" y="310" width="530" height="110" as="geometry" />
        </mxCell>
        <mxCell id="764Ciz8rpWDjdKqTSK2r-17" value="" style="rounded=0;whiteSpace=wrap;html=1;strokeWidth=4;" vertex="1" parent="764Ciz8rpWDjdKqTSK2r-16">
          <mxGeometry width="500.958904109589" height="110" as="geometry" />
        </mxCell>
        <mxCell id="764Ciz8rpWDjdKqTSK2r-18" value="&lt;font style=&quot;font-size: 30px&quot;&gt;Matlab&lt;/font&gt;" style="rounded=0;whiteSpace=wrap;html=1;strokeWidth=2;fillColor=#0050ef;strokeColor=#001DBC;fontColor=#ffffff;" vertex="1" parent="764Ciz8rpWDjdKqTSK2r-16">
          <mxGeometry width="500.958904109589" height="32.35294117647059" as="geometry" />
        </mxCell>
        <mxCell id="764Ciz8rpWDjdKqTSK2r-19" value="&lt;font style=&quot;font-size: 30px&quot;&gt;Implement Spacecraft in STK and ask relative position, velocity&lt;/font&gt;" style="rounded=0;whiteSpace=wrap;html=1;fillColor=#dae8fc;strokeColor=#6c8ebf;" vertex="1" parent="764Ciz8rpWDjdKqTSK2r-16">
          <mxGeometry y="32.35294117647059" width="500.958904109589" height="77.6470588235294" as="geometry" />
        </mxCell>
        <mxCell id="764Ciz8rpWDjdKqTSK2r-20" value="" style="shape=flexArrow;endArrow=classic;html=1;" edge="1" parent="1">
          <mxGeometry width="50" height="50" relative="1" as="geometry">
            <mxPoint x="260" y="460" as="sourcePoint" />
            <mxPoint x="260" y="560" as="targetPoint" />
          </mxGeometry>
        </mxCell>
        <mxCell id="764Ciz8rpWDjdKqTSK2r-21" value="" style="shape=flexArrow;endArrow=classic;html=1;" edge="1" parent="1">
          <mxGeometry width="50" height="50" relative="1" as="geometry">
            <mxPoint x="440" y="560" as="sourcePoint" />
            <mxPoint x="440" y="460" as="targetPoint" />
          </mxGeometry>
        </mxCell>
        <mxCell id="764Ciz8rpWDjdKqTSK2r-22" value="" style="shape=flexArrow;endArrow=classic;html=1;" edge="1" parent="1">
          <mxGeometry width="50" height="50" relative="1" as="geometry">
            <mxPoint x="630" y="370" as="sourcePoint" />
            <mxPoint x="710" y="370" as="targetPoint" />
          </mxGeometry>
        </mxCell>
        <mxCell id="764Ciz8rpWDjdKqTSK2r-23" value="" style="shape=flexArrow;endArrow=classic;html=1;" edge="1" parent="1">
          <mxGeometry width="50" height="50" relative="1" as="geometry">
            <mxPoint x="890" y="180" as="sourcePoint" />
            <mxPoint x="890" y="280" as="targetPoint" />
          </mxGeometry>
        </mxCell>
        <mxCell id="764Ciz8rpWDjdKqTSK2r-24" value="" style="shape=flexArrow;endArrow=classic;html=1;" edge="1" parent="1">
          <mxGeometry width="50" height="50" relative="1" as="geometry">
            <mxPoint x="930" y="450" as="sourcePoint" />
            <mxPoint x="930" y="550" as="targetPoint" />
          </mxGeometry>
        </mxCell>
        <mxCell id="764Ciz8rpWDjdKqTSK2r-25" value="" style="group" vertex="1" connectable="0" parent="1">
          <mxGeometry x="90" y="580" width="1060" height="220" as="geometry" />
        </mxCell>
        <mxCell id="764Ciz8rpWDjdKqTSK2r-26" value="" style="rounded=0;whiteSpace=wrap;html=1;strokeWidth=4;" vertex="1" parent="764Ciz8rpWDjdKqTSK2r-25">
          <mxGeometry width="1001.917808219178" height="220" as="geometry" />
        </mxCell>
        <mxCell id="764Ciz8rpWDjdKqTSK2r-27" value="&lt;font style=&quot;font-size: 30px&quot;&gt;System Tool Kit&lt;/font&gt;" style="rounded=0;whiteSpace=wrap;html=1;strokeWidth=2;fillColor=#0050ef;strokeColor=#001DBC;fontColor=#ffffff;" vertex="1" parent="764Ciz8rpWDjdKqTSK2r-25">
          <mxGeometry width="1001.9223414634147" height="40" as="geometry" />
        </mxCell>
        <mxCell id="764Ciz8rpWDjdKqTSK2r-28" value="&lt;span style=&quot;font-size: 30px&quot;&gt;Update chaser and target positions and velocity&lt;br&gt;Retrieve data&lt;/span&gt;" style="rounded=0;whiteSpace=wrap;html=1;fillColor=#dae8fc;strokeColor=#6c8ebf;" vertex="1" parent="764Ciz8rpWDjdKqTSK2r-25">
          <mxGeometry y="40" width="1001.9223414634147" height="180" as="geometry" />
        </mxCell>
      </root>
    </mxGraphModel>
  </diagram>
</mxfile>
